<svg width="60" height="12" viewBox="0 0 60 12" fill="none" xmlns="http://www.w3.org/2000/svg">
<path d="M6.95433 11.416L6.01833 10.012C5.75433 10.06 5.48633 10.084 5.21433 10.084C4.42233 10.084 3.69433 9.9 3.03033 9.532C2.36633 9.156 1.83833 8.64 1.44633 7.984C1.06233 7.32 0.870328 6.572 0.870328 5.74C0.870328 4.908 1.06233 4.164 1.44633 3.508C1.83833 2.844 2.36633 2.328 3.03033 1.96C3.69433 1.592 4.42233 1.408 5.21433 1.408C6.01433 1.408 6.74233 1.592 7.39833 1.96C8.06233 2.328 8.58633 2.844 8.97033 3.508C9.35433 4.164 9.54633 4.908 9.54633 5.74C9.54633 6.436 9.40633 7.08 9.12633 7.672C8.84633 8.256 8.46233 8.744 7.97433 9.136L9.76233 11.416H6.95433ZM3.27033 5.74C3.27033 6.404 3.44233 6.932 3.78633 7.324C4.13033 7.708 4.60633 7.9 5.21433 7.9C5.81433 7.9 6.28633 7.704 6.63033 7.312C6.98233 6.92 7.15833 6.396 7.15833 5.74C7.15833 5.068 6.98233 4.54 6.63033 4.156C6.28633 3.764 5.81433 3.568 5.21433 3.568C4.60633 3.568 4.13033 3.764 3.78633 4.156C3.44233 4.54 3.27033 5.068 3.27033 5.74ZM17.5034 3.268V10H15.1394V9.04C14.9394 9.344 14.6634 9.592 14.3114 9.784C13.9594 9.968 13.5554 10.06 13.0994 10.06C12.3154 10.06 11.6954 9.804 11.2394 9.292C10.7914 8.772 10.5674 8.068 10.5674 7.18V3.268H12.9074V6.88C12.9074 7.264 13.0074 7.568 13.2074 7.792C13.4154 8.008 13.6874 8.116 14.0234 8.116C14.3674 8.116 14.6394 8.008 14.8394 7.792C15.0394 7.568 15.1394 7.264 15.1394 6.88V3.268H17.5034ZM20.0299 2.644C19.6139 2.644 19.2779 2.532 19.0219 2.308C18.7739 2.076 18.6499 1.788 18.6499 1.444C18.6499 1.092 18.7739 0.8 19.0219 0.568C19.2779 0.335999 19.6139 0.219999 20.0299 0.219999C20.4379 0.219999 20.7659 0.335999 21.0139 0.568C21.2699 0.8 21.3979 1.092 21.3979 1.444C21.3979 1.788 21.2699 2.076 21.0139 2.308C20.7659 2.532 20.4379 2.644 20.0299 2.644ZM21.1939 3.268V10H18.8419V3.268H21.1939ZM22.1493 6.628C22.1493 5.932 22.2933 5.324 22.5813 4.804C22.8693 4.284 23.2693 3.884 23.7813 3.604C24.3013 3.324 24.8933 3.184 25.5573 3.184C26.4133 3.184 27.1333 3.42 27.7173 3.892C28.3013 4.356 28.6773 5.008 28.8453 5.848H26.3493C26.2053 5.408 25.9253 5.188 25.5093 5.188C25.2133 5.188 24.9773 5.312 24.8013 5.56C24.6333 5.8 24.5493 6.156 24.5493 6.628C24.5493 7.1 24.6333 7.46 24.8013 7.708C24.9773 7.956 25.2133 8.08 25.5093 8.08C25.9333 8.08 26.2133 7.86 26.3493 7.42H28.8453C28.6773 8.252 28.3013 8.904 27.7173 9.376C27.1333 9.848 26.4133 10.084 25.5573 10.084C24.8933 10.084 24.3013 9.944 23.7813 9.664C23.2693 9.384 22.8693 8.984 22.5813 8.464C22.2933 7.944 22.1493 7.332 22.1493 6.628ZM34.0344 10L32.1744 7.24V10H29.8224V1.12H32.1744V5.908L34.0344 3.268H36.8544L34.2024 6.652L36.9024 10H34.0344Z" fill="#9575CD"/>
<path d="M42.2839 5.716C42.7319 5.796 43.1119 6.032 43.4239 6.424C43.7359 6.816 43.8919 7.26 43.8919 7.756C43.8919 8.18 43.7799 8.564 43.5559 8.908C43.3399 9.244 43.0239 9.512 42.6079 9.712C42.1919 9.904 41.7079 10 41.1559 10H37.8199V1.66H40.9999C41.5679 1.66 42.0559 1.756 42.4639 1.948C42.8719 2.14 43.1799 2.4 43.3879 2.728C43.5959 3.048 43.6999 3.408 43.6999 3.808C43.6999 4.288 43.5719 4.688 43.3159 5.008C43.0599 5.328 42.7159 5.564 42.2839 5.716ZM39.1879 5.164H40.8799C41.3279 5.164 41.6759 5.064 41.9239 4.864C42.1799 4.656 42.3079 4.36 42.3079 3.976C42.3079 3.6 42.1799 3.308 41.9239 3.1C41.6759 2.884 41.3279 2.776 40.8799 2.776H39.1879V5.164ZM41.0359 8.884C41.4999 8.884 41.8639 8.772 42.1279 8.548C42.3919 8.324 42.5239 8.012 42.5239 7.612C42.5239 7.204 42.3839 6.88 42.1039 6.64C41.8239 6.4 41.4519 6.28 40.9879 6.28H39.1879V8.884H41.0359ZM46.0745 2.512C45.8265 2.512 45.6185 2.428 45.4505 2.26C45.2825 2.092 45.1985 1.884 45.1985 1.636C45.1985 1.388 45.2825 1.18 45.4505 1.012C45.6185 0.844 45.8265 0.76 46.0745 0.76C46.3145 0.76 46.5185 0.844 46.6865 1.012C46.8545 1.18 46.9385 1.388 46.9385 1.636C46.9385 1.884 46.8545 2.092 46.6865 2.26C46.5185 2.428 46.3145 2.512 46.0745 2.512ZM46.7465 3.388V10H45.3785V3.388H46.7465ZM50.1386 4.504V8.164C50.1386 8.412 50.1946 8.592 50.3066 8.704C50.4266 8.808 50.6266 8.86 50.9066 8.86H51.7466V10H50.6666C50.0506 10 49.5786 9.856 49.2506 9.568C48.9226 9.28 48.7586 8.812 48.7586 8.164V4.504H47.9786V3.388H48.7586V1.744H50.1386V3.388H51.7466V4.504H50.1386ZM59.0674 6.532C59.0674 6.78 59.0514 7.004 59.0194 7.204H53.9674C54.0074 7.732 54.2034 8.156 54.5554 8.476C54.9074 8.796 55.3394 8.956 55.8514 8.956C56.5874 8.956 57.1074 8.648 57.4114 8.032H58.8874C58.6874 8.64 58.3234 9.14 57.7954 9.532C57.2754 9.916 56.6274 10.108 55.8514 10.108C55.2194 10.108 54.6514 9.968 54.1474 9.688C53.6514 9.4 53.2594 9 52.9714 8.488C52.6914 7.968 52.5514 7.368 52.5514 6.688C52.5514 6.008 52.6874 5.412 52.9594 4.9C53.2394 4.38 53.6274 3.98 54.1234 3.7C54.6274 3.42 55.2034 3.28 55.8514 3.28C56.4754 3.28 57.0314 3.416 57.5194 3.688C58.0074 3.96 58.3874 4.344 58.6594 4.84C58.9314 5.328 59.0674 5.892 59.0674 6.532ZM57.6394 6.1C57.6314 5.596 57.4514 5.192 57.0994 4.888C56.7474 4.584 56.3114 4.432 55.7914 4.432C55.3194 4.432 54.9154 4.584 54.5794 4.888C54.2434 5.184 54.0434 5.588 53.9794 6.1H57.6394Z" fill="#5E35B1"/>
</svg>
